<svg viewBox="0 0 300 200" xmlns="http://www.w3.org/2000/svg">
  <!-- Background -->
  <rect width="300" height="200" fill="#F9F6EE" rx="10" ry="10" opacity="0.5"/>
  
  <!-- Circular bases representing mycelium network - teal color -->
  <circle cx="150" cy="100" r="55" fill="none" stroke="#26A69A" stroke-width="1.5" opacity="0.6"/>
  <circle cx="150" cy="100" r="48" fill="none" stroke="#26A69A" stroke-width="1" opacity="0.5"/>
  <circle cx="150" cy="100" r="42" fill="none" stroke="#26A69A" stroke-width="0.8" opacity="0.4"/>
  
  <!-- Connection lines (mycelium network) -->
  <g stroke="#D2B48C" stroke-width="0.8" opacity="0.8">
    <line x1="150" y1="100" x2="130" y2="60" />
    <line x1="150" y1="100" x2="170" y2="60" />
    <line x1="150" y1="100" x2="110" y2="80" />
    <line x1="150" y1="100" x2="190" y2="80" />
    <line x1="150" y1="100" x2="120" y2="120" />
    <line x1="150" y1="100" x2="180" y2="120" />
    <line x1="150" y1="100" x2="150" y2="60" />
  </g>
  
  <!-- Enoki Mushroom Clusters -->
  <!-- Central cluster -->
  <g>
    <line x1="150" y1="100" x2="150" y2="50" stroke="#D2B48C" stroke-width="2.5"/>
    <circle cx="150" cy="45" r="6" fill="#F9F6EE" stroke="#D2B48C" stroke-width="1.5"/>
  </g>
  
  <!-- Left cluster -->
  <g>
    <line x1="130" y1="60" x2="130" y2="40" stroke="#D2B48C" stroke-width="2"/>
    <circle cx="130" cy="35" r="5" fill="#F9F6EE" stroke="#D2B48C" stroke-width="1.5"/>
  </g>
  
  <g>
    <line x1="110" y1="80" x2="110" y2="60" stroke="#D2B48C" stroke-width="2"/>
    <circle cx="110" cy="55" r="5" fill="#F9F6EE" stroke="#D2B48C" stroke-width="1.5"/>
  </g>
  
  <g>
    <line x1="120" y1="120" x2="120" y2="100" stroke="#D2B48C" stroke-width="2"/>
    <circle cx="120" cy="95" r="5" fill="#F9F6EE" stroke="#D2B48C" stroke-width="1.5"/>
  </g>
  
  <!-- Right cluster -->
  <g>
    <line x1="170" y1="60" x2="170" y2="40" stroke="#D2B48C" stroke-width="2"/>
    <circle cx="170" cy="35" r="5" fill="#F9F6EE" stroke="#D2B48C" stroke-width="1.5"/>
  </g>
  
  <g>
    <line x1="190" y1="80" x2="190" y2="60" stroke="#D2B48C" stroke-width="2"/>
    <circle cx="190" cy="55" r="5" fill="#F9F6EE" stroke="#D2B48C" stroke-width="1.5"/>
  </g>
  
  <g>
    <line x1="180" y1="120" x2="180" y2="100" stroke="#D2B48C" stroke-width="2"/>
    <circle cx="180" cy="95" r="5" fill="#F9F6EE" stroke="#D2B48C" stroke-width="1.5"/>
  </g>
</svg>