<svg xmlns="http://www.w3.org/2000/svg" height="400" width="400">
 <g class="layer">
  <title>Layer 1</title>
  <rect y="150" x="182" width="44" id="svg_3" height="172" fill="#1E1E1E"></rect>
  <path id="svg_1" fill="#2D3142" d="m107.5,330l200,0l-30,71l-140,0l-30,-71z"></path>
  <rect y="307" x="99" width="217" transform="matrix(1, 0, 0, 1, 0, 0)" rx="10" id="svg_2" height="29" fill="#0E1C36"></rect>
  <rect y="204" x="192" width="100" transform="matrix(1, 0, 0, 1, 0, 0)" id="svg_4" height="15" fill="#1E1E1E"></rect>
  <rect y="248" x="114" width="80" transform="matrix(1, 0, 0, 1, 0, 0)" id="svg_5" height="15" fill="#1E1E1E"></rect>
  <rect y="169" x="199" width="15" transform="matrix(1, 0, 0, 1, 0, 0)" id="svg_6" height="60" fill="#1E1E1E"></rect>
  <rect y="67" x="88" width="207" ry="30" rx="30" id="svg_7" height="91" fill="#00897B"></rect>
  <rect y="225" x="43" width="120" transform="matrix(1, 0, 0, 1, 0, 0)" ry="25" rx="25" id="svg_8" height="60" fill="#00897B"></rect>
  <rect y="181" x="245" width="128" ry="25" rx="25" id="svg_9" height="60" fill="#00897B"></rect>
 </g>
</svg>