<?xml version="1.0"?>
<svg width="400" height="400" xmlns="http://www.w3.org/2000/svg" xmlns:svg="http://www.w3.org/2000/svg">
 <!-- Pot -->

 <!-- Trunk -->
 <!-- Branches -->
 <!-- Foliage -->
 <g class="layer">
  <title>Layer 1</title>
  <path d="m120,320l160,0l-20,80l-120,0l-20,-80z" fill="#2D3142" id="svg_1"/>
  <rect fill="#0E1C36" height="20" id="svg_2" rx="10" width="188" x="106" y="300"/>
  <rect fill="#1E1E1E" height="142" id="svg_3" transform="matrix(1, 0, 0, 1, 0, 0)" width="20" x="190" y="158"/>
  <rect fill="#1E1E1E" height="15" id="svg_4" width="80" x="210" y="210"/>
  <rect fill="#1E1E1E" height="15" id="svg_5" width="80" x="110" y="240"/>
  <rect fill="#1E1E1E" height="80" id="svg_6" width="15" x="160" y="160"/>
  <rect fill="#26A69A" height="70" id="svg_7" rx="35" transform="matrix(1, 0, 0, 1, 0, 0)" width="200" x="98" y="101"/>
  <rect fill="#26A69A" height="60" id="svg_8" rx="30" width="110" x="70" y="219"/>
  <rect fill="#26A69A" height="60" id="svg_9" rx="30" width="120" x="230" y="180"/>
 </g>
</svg>